<mxfile host="Electron" agent="Mozilla/5.0 (X11; Linux x86_64) AppleWebKit/537.36 (KHTML, like Gecko) draw.io/26.0.16 Chrome/132.0.6834.196 Electron/34.2.0 Safari/537.36" version="26.0.16">
  <diagram name="Page-1" id="ikfAr6Wg9IlykZeeA7P8">
    <mxGraphModel dx="1444" dy="933" grid="1" gridSize="10" guides="1" tooltips="1" connect="1" arrows="1" fold="1" page="1" pageScale="1" pageWidth="850" pageHeight="1100" math="0" shadow="0">
      <root>
        <mxCell id="0" />
        <mxCell id="1" parent="0" />
        <mxCell id="hRWLToJVf3gDYwzzTR4O-7" value="" style="edgeStyle=orthogonalEdgeStyle;rounded=0;orthogonalLoop=1;jettySize=auto;html=1;" edge="1" parent="1" source="hRWLToJVf3gDYwzzTR4O-1" target="hRWLToJVf3gDYwzzTR4O-3">
          <mxGeometry relative="1" as="geometry" />
        </mxCell>
        <mxCell id="hRWLToJVf3gDYwzzTR4O-1" value="&lt;font style=&quot;font-size: 18px;&quot;&gt;&lt;b&gt;Julia application functionality&lt;/b&gt;&lt;/font&gt;" style="whiteSpace=wrap;html=1;aspect=fixed;" vertex="1" parent="1">
          <mxGeometry x="340" y="20" width="120" height="120" as="geometry" />
        </mxCell>
        <mxCell id="hRWLToJVf3gDYwzzTR4O-12" value="" style="edgeStyle=orthogonalEdgeStyle;rounded=0;orthogonalLoop=1;jettySize=auto;html=1;" edge="1" parent="1" source="hRWLToJVf3gDYwzzTR4O-2" target="hRWLToJVf3gDYwzzTR4O-11">
          <mxGeometry relative="1" as="geometry" />
        </mxCell>
        <mxCell id="hRWLToJVf3gDYwzzTR4O-2" value="&lt;font style=&quot;font-size: 14px;&quot;&gt;&lt;b&gt;Create cards&lt;/b&gt;&lt;/font&gt;" style="rounded=1;whiteSpace=wrap;html=1;" vertex="1" parent="1">
          <mxGeometry x="30" y="250" width="120" height="60" as="geometry" />
        </mxCell>
        <mxCell id="hRWLToJVf3gDYwzzTR4O-16" value="" style="edgeStyle=orthogonalEdgeStyle;rounded=0;orthogonalLoop=1;jettySize=auto;html=1;" edge="1" parent="1" source="hRWLToJVf3gDYwzzTR4O-3" target="hRWLToJVf3gDYwzzTR4O-15">
          <mxGeometry relative="1" as="geometry" />
        </mxCell>
        <mxCell id="hRWLToJVf3gDYwzzTR4O-3" value="&lt;font style=&quot;font-size: 14px;&quot;&gt;&lt;b&gt;Learn cards&lt;/b&gt;&lt;/font&gt;" style="rounded=1;whiteSpace=wrap;html=1;" vertex="1" parent="1">
          <mxGeometry x="240" y="250" width="120" height="60" as="geometry" />
        </mxCell>
        <mxCell id="hRWLToJVf3gDYwzzTR4O-4" value="&lt;font style=&quot;font-size: 14px;&quot;&gt;&lt;b&gt;View stats&lt;/b&gt;&lt;/font&gt;" style="rounded=1;whiteSpace=wrap;html=1;" vertex="1" parent="1">
          <mxGeometry x="460" y="250" width="120" height="60" as="geometry" />
        </mxCell>
        <mxCell id="hRWLToJVf3gDYwzzTR4O-5" value="&lt;font style=&quot;font-size: 14px;&quot;&gt;&lt;b&gt;Test yourself&lt;/b&gt;&lt;/font&gt;" style="rounded=1;whiteSpace=wrap;html=1;" vertex="1" parent="1">
          <mxGeometry x="680" y="250" width="120" height="60" as="geometry" />
        </mxCell>
        <mxCell id="hRWLToJVf3gDYwzzTR4O-8" value="" style="edgeStyle=orthogonalEdgeStyle;rounded=0;orthogonalLoop=1;jettySize=auto;html=1;exitX=0.5;exitY=1;exitDx=0;exitDy=0;" edge="1" parent="1" source="hRWLToJVf3gDYwzzTR4O-1" target="hRWLToJVf3gDYwzzTR4O-4">
          <mxGeometry relative="1" as="geometry">
            <mxPoint x="390" y="210" as="sourcePoint" />
            <mxPoint x="310" y="260" as="targetPoint" />
          </mxGeometry>
        </mxCell>
        <mxCell id="hRWLToJVf3gDYwzzTR4O-9" value="" style="edgeStyle=orthogonalEdgeStyle;rounded=0;orthogonalLoop=1;jettySize=auto;html=1;entryX=0.5;entryY=0;entryDx=0;entryDy=0;exitX=0.5;exitY=1;exitDx=0;exitDy=0;" edge="1" parent="1" source="hRWLToJVf3gDYwzzTR4O-1" target="hRWLToJVf3gDYwzzTR4O-2">
          <mxGeometry relative="1" as="geometry">
            <mxPoint x="410" y="130" as="sourcePoint" />
            <mxPoint x="310" y="260" as="targetPoint" />
          </mxGeometry>
        </mxCell>
        <mxCell id="hRWLToJVf3gDYwzzTR4O-10" value="" style="edgeStyle=orthogonalEdgeStyle;rounded=0;orthogonalLoop=1;jettySize=auto;html=1;exitX=0.5;exitY=1;exitDx=0;exitDy=0;entryX=0.5;entryY=0;entryDx=0;entryDy=0;" edge="1" parent="1" source="hRWLToJVf3gDYwzzTR4O-1" target="hRWLToJVf3gDYwzzTR4O-5">
          <mxGeometry relative="1" as="geometry">
            <mxPoint x="420" y="140" as="sourcePoint" />
            <mxPoint x="320" y="270" as="targetPoint" />
          </mxGeometry>
        </mxCell>
        <mxCell id="hRWLToJVf3gDYwzzTR4O-11" value="Cards are only for english words. User just inputs the word and the app gets data from 3-d party api, creating a card for a user. Saving the card to the database." style="rounded=1;whiteSpace=wrap;html=1;" vertex="1" parent="1">
          <mxGeometry x="30" y="390" width="120" height="160" as="geometry" />
        </mxCell>
        <mxCell id="hRWLToJVf3gDYwzzTR4O-18" value="" style="edgeStyle=orthogonalEdgeStyle;rounded=0;orthogonalLoop=1;jettySize=auto;html=1;" edge="1" parent="1" source="hRWLToJVf3gDYwzzTR4O-15" target="hRWLToJVf3gDYwzzTR4O-17">
          <mxGeometry relative="1" as="geometry" />
        </mxCell>
        <mxCell id="hRWLToJVf3gDYwzzTR4O-15" value="&lt;font style=&quot;font-size: 12px;&quot;&gt;User can crate decks of cards.&lt;/font&gt;" style="rounded=1;whiteSpace=wrap;html=1;" vertex="1" parent="1">
          <mxGeometry x="240" y="390" width="120" height="60" as="geometry" />
        </mxCell>
        <mxCell id="hRWLToJVf3gDYwzzTR4O-17" value="Cards pull randomly from the deck. After fliping the card user can asses how hard it was for them to recollect the meaning of the word selecting one of three options:&lt;div&gt;&quot;easy&quot;, &quot;medium&quot;, &quot;hard&quot;.&lt;/div&gt;" style="rounded=1;whiteSpace=wrap;html=1;" vertex="1" parent="1">
          <mxGeometry x="240" y="530" width="120" height="190" as="geometry" />
        </mxCell>
      </root>
    </mxGraphModel>
  </diagram>
</mxfile>
